<?xml version="1.0" standalone="no"?>
<!DOCTYPE svg PUBLIC "-//W3C//DTD SVG 20010904//EN"
 "http://www.w3.org/TR/2001/REC-SVG-20010904/DTD/svg10.dtd">
<svg version="1.0" xmlns="http://www.w3.org/2000/svg"
 width="1831.000000pt" height="321.000000pt" viewBox="0 0 1831.000000 321.000000"
 preserveAspectRatio="xMidYMid meet">

<g transform="translate(0.000000,321.000000) scale(0.100000,-0.100000)"
fill="#000000" stroke="none">
<path d="M50 1605 l0 -1555 310 0 311 0 -3 157 -3 158 -152 3 -153 3 0 1239 0
1240 155 0 155 0 0 155 0 155 -310 0 -310 0 0 -1555z"/>
<path d="M3461 3005 l0 -155 160 0 159 0 0 -1240 0 -1239 -157 -3 -158 -3 0
-155 0 -155 313 -3 312 -2 0 1555 0 1555 -314 0 -315 0 0 -155z"/>
<path d="M9724 2901 c-95 -23 -168 -62 -230 -123 -94 -91 -134 -210 -134 -400
l0 -108 -122 -1 c-68 -1 -126 -1 -130 0 -5 0 -8 -71 -8 -159 l0 -160 130 0
130 0 0 -620 0 -620 170 0 170 0 0 620 0 620 193 2 192 3 0 155 0 155 -180 2
c-99 1 -186 2 -194 2 -22 1 -8 167 18 219 47 91 114 119 294 121 l87 1 0 155
0 155 -157 -1 c-115 0 -178 -5 -229 -18z"/>
<path d="M6650 2478 l0 -431 -74 71 c-129 123 -286 182 -479 182 -347 0 -629
-224 -729 -575 -19 -68 -22 -104 -22 -240 0 -145 3 -168 27 -248 15 -49 39
-112 53 -140 92 -183 253 -324 437 -382 269 -86 547 -25 731 159 l56 56 0
-110 0 -110 170 0 170 0 0 1100 0 1099 -170 0 -170 -1 0 -430z m-355 -523
c233 -61 380 -290 345 -537 -35 -245 -223 -408 -470 -408 -240 0 -432 162
-470 395 -41 253 103 485 341 549 72 19 181 20 254 1z"/>
<path d="M2535 1618 c-169 -508 -308 -929 -310 -935 -3 -10 32 -13 154 -13
l159 0 308 923 c169 507 309 928 312 935 3 9 -32 12 -156 12 l-160 0 -307
-922z"/>
<path d="M7945 2284 c-166 -37 -287 -104 -410 -228 -75 -75 -99 -107 -138
-186 -68 -136 -89 -227 -90 -380 0 -133 12 -199 59 -319 47 -119 153 -255 264
-336 215 -158 539 -202 809 -110 208 70 371 206 467 387 l35 68 -188 0 -189 0
-56 -54 c-95 -93 -207 -136 -348 -137 -151 -1 -250 35 -346 124 -61 57 -113
139 -132 210 l-10 37 645 0 645 0 -4 148 c-4 133 -7 156 -37 242 -45 133 -100
221 -195 315 -111 109 -213 167 -372 211 -85 23 -318 28 -409 8z m305 -305
c127 -29 252 -127 308 -242 53 -107 96 -97 -423 -97 -363 0 -455 3 -455 13 0
7 15 44 34 82 56 118 162 206 287 239 64 17 186 20 249 5z"/>
<path d="M10850 2274 c-234 -58 -411 -197 -519 -404 -55 -105 -81 -205 -88
-332 -13 -238 56 -436 210 -605 268 -293 776 -342 1127 -108 86 57 198 175
243 256 61 109 76 99 -137 99 l-187 0 -50 -50 c-124 -124 -344 -175 -520 -120
-79 24 -174 83 -217 136 -35 42 -87 141 -98 187 l-6 27 640 0 640 0 4 24 c19
99 -3 284 -47 403 -144 382 -574 593 -995 487z m343 -299 c157 -41 287 -164
332 -312 l6 -23 -461 0 -461 0 6 23 c4 12 23 52 43 90 55 107 160 190 282 223
63 17 185 17 253 -1z"/>
<path d="M12872 2280 c-106 -28 -193 -74 -267 -142 l-64 -59 -3 93 -3 93 -170
0 -170 0 0 -775 0 -775 172 -3 172 -2 3 487 3 488 31 65 c73 153 217 230 405
217 169 -11 293 -112 335 -272 11 -38 14 -160 14 -518 l0 -467 173 2 172 3 0
530 c0 588 -3 616 -67 747 -41 83 -161 203 -241 241 -141 68 -343 87 -495 47z"/>
<path d="M14380 2280 c-163 -44 -289 -136 -343 -252 -77 -163 -59 -355 44
-473 74 -85 183 -137 435 -210 179 -52 247 -82 289 -125 25 -26 30 -40 30 -80
0 -63 -25 -97 -95 -132 -68 -33 -122 -40 -211 -28 -117 17 -187 67 -209 150
l-11 40 -175 0 -175 0 7 -52 c15 -116 62 -207 146 -284 115 -106 268 -156 478
-155 311 0 524 139 586 384 33 126 1 283 -76 370 -82 93 -175 139 -441 217
-206 61 -283 98 -308 149 -9 20 -16 42 -15 49 1 6 2 21 3 32 2 32 59 87 109
107 29 11 74 18 122 18 125 0 205 -45 235 -131 l13 -39 176 -3 176 -2 -6 42
c-16 117 -64 209 -147 284 -107 96 -225 135 -422 140 -117 3 -152 1 -215 -16z"/>
<path d="M17488 2290 c-144 -24 -285 -106 -351 -202 -137 -198 -108 -456 66
-587 76 -57 160 -93 359 -151 166 -49 255 -84 288 -112 84 -71 60 -175 -52
-231 -47 -24 -70 -29 -140 -30 -106 -2 -176 21 -229 74 -21 21 -41 51 -45 66
-3 16 -7 34 -10 41 -2 9 -46 12 -175 12 l-172 0 6 -66 c15 -190 192 -360 427
-410 96 -20 273 -20 370 0 209 44 366 184 406 363 36 163 0 306 -100 401 -91
86 -173 123 -446 202 -165 48 -226 76 -265 122 -23 28 -27 39 -22 81 8 92 91
142 233 141 130 0 216 -53 239 -146 l7 -28 175 0 175 0 -7 52 c-21 150 -113
276 -253 347 -123 62 -325 87 -484 61z"/>
<path d="M15270 2265 c0 -6 62 -151 450 -1065 93 -217 176 -413 184 -436 l17
-40 -126 -294 c-69 -161 -125 -294 -125 -296 0 -1 83 -2 185 -1 l186 2 220
520 c122 286 322 759 446 1050 124 292 228 538 230 547 5 15 -13 17 -184 18
l-190 1 -223 -561 c-123 -308 -227 -557 -231 -553 -4 5 -105 251 -224 548
-119 297 -219 545 -222 552 -3 8 -60 12 -199 13 -107 0 -194 -2 -194 -5z"/>
<path d="M1445 1684 l-460 -233 -3 -155 -3 -156 461 -230 c253 -126 464 -230
469 -230 10 0 15 268 5 294 -4 10 -132 80 -311 169 l-304 153 308 154 308 155
1 153 c0 84 -2 154 -5 156 -3 2 -213 -102 -466 -230z"/>
</g>
</svg>
